<mxfile host="app.diagrams.net" modified="2021-05-11T11:14:48.168Z" agent="5.0 (Windows NT 10.0; Win64; x64) AppleWebKit/537.36 (KHTML, like Gecko) Chrome/90.0.4430.93 Safari/537.36" etag="b4uUIkraDh3eJJU4aV5Q" version="14.6.11" type="github">
  <diagram id="MHHxKJNjg95DKsAhapM7" name="第 1 页">
    <mxGraphModel dx="454" dy="426" grid="1" gridSize="10" guides="1" tooltips="1" connect="1" arrows="1" fold="1" page="1" pageScale="1" pageWidth="1920" pageHeight="1200" math="0" shadow="0">
      <root>
        <mxCell id="0" />
        <mxCell id="1" parent="0" />
        <mxCell id="kewE_2hSAg9XWlE6RFoe-1" value="" style="edgeStyle=orthogonalEdgeStyle;rounded=0;orthogonalLoop=1;jettySize=auto;html=1;" edge="1" parent="1" source="kewE_2hSAg9XWlE6RFoe-2" target="kewE_2hSAg9XWlE6RFoe-4">
          <mxGeometry relative="1" as="geometry" />
        </mxCell>
        <mxCell id="kewE_2hSAg9XWlE6RFoe-2" value="&lt;font style=&quot;font-size: 20px&quot;&gt;开始&lt;/font&gt;" style="rounded=1;whiteSpace=wrap;html=1;" vertex="1" parent="1">
          <mxGeometry x="610" y="211" width="120" height="60" as="geometry" />
        </mxCell>
        <mxCell id="kewE_2hSAg9XWlE6RFoe-3" value="" style="edgeStyle=orthogonalEdgeStyle;rounded=0;orthogonalLoop=1;jettySize=auto;html=1;" edge="1" parent="1" source="kewE_2hSAg9XWlE6RFoe-4" target="kewE_2hSAg9XWlE6RFoe-7">
          <mxGeometry relative="1" as="geometry" />
        </mxCell>
        <mxCell id="kewE_2hSAg9XWlE6RFoe-4" value="&lt;font style=&quot;font-size: 20px&quot;&gt;初始化&lt;/font&gt;" style="rounded=0;whiteSpace=wrap;html=1;" vertex="1" parent="1">
          <mxGeometry x="802" y="211" width="120" height="60" as="geometry" />
        </mxCell>
        <mxCell id="kewE_2hSAg9XWlE6RFoe-5" value="" style="edgeStyle=orthogonalEdgeStyle;rounded=0;orthogonalLoop=1;jettySize=auto;html=1;entryX=0;entryY=0.5;entryDx=0;entryDy=0;" edge="1" parent="1" source="kewE_2hSAg9XWlE6RFoe-7" target="kewE_2hSAg9XWlE6RFoe-9">
          <mxGeometry relative="1" as="geometry" />
        </mxCell>
        <mxCell id="kewE_2hSAg9XWlE6RFoe-6" style="edgeStyle=orthogonalEdgeStyle;rounded=0;orthogonalLoop=1;jettySize=auto;html=1;entryX=0;entryY=0.5;entryDx=0;entryDy=0;" edge="1" parent="1" source="kewE_2hSAg9XWlE6RFoe-7" target="kewE_2hSAg9XWlE6RFoe-11">
          <mxGeometry relative="1" as="geometry" />
        </mxCell>
        <mxCell id="kewE_2hSAg9XWlE6RFoe-7" value="&lt;span style=&quot;font-size: 20px&quot;&gt;退磁&lt;br&gt;&lt;/span&gt;" style="rounded=0;whiteSpace=wrap;html=1;" vertex="1" parent="1">
          <mxGeometry x="993" y="211" width="120" height="60" as="geometry" />
        </mxCell>
        <mxCell id="kewE_2hSAg9XWlE6RFoe-8" value="" style="edgeStyle=orthogonalEdgeStyle;rounded=0;orthogonalLoop=1;jettySize=auto;html=1;" edge="1" parent="1" source="kewE_2hSAg9XWlE6RFoe-9" target="kewE_2hSAg9XWlE6RFoe-13">
          <mxGeometry relative="1" as="geometry" />
        </mxCell>
        <mxCell id="kewE_2hSAg9XWlE6RFoe-9" value="&lt;span style=&quot;font-size: 20px&quot;&gt;励磁&lt;br&gt;&lt;/span&gt;" style="rounded=0;whiteSpace=wrap;html=1;" vertex="1" parent="1">
          <mxGeometry x="1180" y="280" width="120" height="60" as="geometry" />
        </mxCell>
        <mxCell id="kewE_2hSAg9XWlE6RFoe-10" style="edgeStyle=orthogonalEdgeStyle;rounded=0;orthogonalLoop=1;jettySize=auto;html=1;exitX=1;exitY=0.5;exitDx=0;exitDy=0;entryX=0;entryY=0.5;entryDx=0;entryDy=0;" edge="1" parent="1" source="kewE_2hSAg9XWlE6RFoe-11" target="kewE_2hSAg9XWlE6RFoe-13">
          <mxGeometry relative="1" as="geometry" />
        </mxCell>
        <mxCell id="kewE_2hSAg9XWlE6RFoe-11" value="&lt;span style=&quot;font-size: 20px&quot;&gt;采集&lt;br&gt;&lt;/span&gt;" style="rounded=0;whiteSpace=wrap;html=1;" vertex="1" parent="1">
          <mxGeometry x="1180" y="143" width="120" height="60" as="geometry" />
        </mxCell>
        <mxCell id="kewE_2hSAg9XWlE6RFoe-12" value="" style="edgeStyle=orthogonalEdgeStyle;rounded=0;orthogonalLoop=1;jettySize=auto;html=1;" edge="1" parent="1" source="kewE_2hSAg9XWlE6RFoe-13" target="kewE_2hSAg9XWlE6RFoe-15">
          <mxGeometry relative="1" as="geometry" />
        </mxCell>
        <mxCell id="kewE_2hSAg9XWlE6RFoe-13" value="&lt;span style=&quot;font-size: 20px&quot;&gt;数据处理&lt;br&gt;（滤波、直流偏置、相位调整）&lt;br&gt;&lt;/span&gt;" style="rounded=0;whiteSpace=wrap;html=1;" vertex="1" parent="1">
          <mxGeometry x="1357" y="186" width="160" height="110" as="geometry" />
        </mxCell>
        <mxCell id="kewE_2hSAg9XWlE6RFoe-14" value="" style="edgeStyle=orthogonalEdgeStyle;rounded=0;orthogonalLoop=1;jettySize=auto;html=1;" edge="1" parent="1" source="kewE_2hSAg9XWlE6RFoe-15" target="kewE_2hSAg9XWlE6RFoe-16">
          <mxGeometry relative="1" as="geometry" />
        </mxCell>
        <mxCell id="kewE_2hSAg9XWlE6RFoe-15" value="&lt;span style=&quot;font-size: 20px&quot;&gt;数据存储&lt;br&gt;&lt;/span&gt;" style="rounded=0;whiteSpace=wrap;html=1;" vertex="1" parent="1">
          <mxGeometry x="1569" y="211" width="120" height="60" as="geometry" />
        </mxCell>
        <mxCell id="kewE_2hSAg9XWlE6RFoe-16" value="&lt;font style=&quot;font-size: 20px&quot;&gt;结束&lt;/font&gt;" style="rounded=1;whiteSpace=wrap;html=1;" vertex="1" parent="1">
          <mxGeometry x="1760" y="211" width="120" height="60" as="geometry" />
        </mxCell>
      </root>
    </mxGraphModel>
  </diagram>
</mxfile>
